<svg width="24" height="28" viewBox="0 0 24 28" fill="none" xmlns="http://www.w3.org/2000/svg">
<rect width="24" height="28" fill="#1E1E1E"/>
<g id="Alfit" clip-path="url(#clip0_0_1)">
<rect width="1440" height="6024" transform="translate(-1217 -68)" fill="white"/>
<g id="Group 61732">
<rect id="Rectangle 4960" x="-1217" y="-20" width="1440" height="70" fill="#EBEBEB"/>
</g>
<g id="ph:heart-thin">
<path id="Vector" d="M16.6875 7C14.6775 7 12.945 7.95531 12 9.53781C11.055 7.95531 9.3225 7 7.3125 7C5.87092 7.00174 4.48888 7.57517 3.46952 8.59453C2.45017 9.61388 1.87674 10.9959 1.875 12.4375C1.875 15.1178 3.5625 17.9191 6.88125 20.7616C8.4136 22.0655 10.0681 23.2187 11.8219 24.205C11.8766 24.2345 11.9378 24.25 12 24.25C12.0622 24.25 12.1234 24.2345 12.1781 24.205C13.9319 23.2187 15.5864 22.0655 17.1188 20.7616C20.4375 17.9191 22.125 15.1178 22.125 12.4375C22.1233 10.9959 21.5498 9.61388 20.5305 8.59453C19.5111 7.57517 18.1291 7.00174 16.6875 7ZM12 23.4456C10.6875 22.6994 2.625 17.8816 2.625 12.4375C2.62649 11.1948 3.12083 10.0033 3.99958 9.12458C4.87834 8.24583 6.06975 7.75149 7.3125 7.75C9.29156 7.75 10.9547 8.81031 11.6531 10.5166C11.6814 10.5853 11.7294 10.6442 11.7912 10.6856C11.853 10.727 11.9256 10.7491 12 10.7491C12.0744 10.7491 12.147 10.727 12.2088 10.6856C12.2706 10.6442 12.3186 10.5853 12.3469 10.5166C13.0453 8.81031 14.7084 7.75 16.6875 7.75C17.9302 7.75149 19.1217 8.24583 20.0004 9.12458C20.8792 10.0033 21.3735 11.1948 21.375 12.4375C21.375 17.875 13.3125 22.6994 12 23.4456Z" fill="black"/>
</g>
</g>
<defs>
<clipPath id="clip0_0_1">
<rect width="1440" height="6024" fill="white" transform="translate(-1217 -68)"/>
</clipPath>
</defs>
</svg>
